{
    "asset" : {
        "generator" : "Khronos glTF Blender I/O v1.4.40",
        "version" : "2.0"
    },
    "scene" : 0,
    "scenes" : [
        {
            "name" : "Scene",
            "nodes" : [
                0,
                1,
                2
            ]
        }
    ],
    "nodes" : [
        {
            "name" : "Light",
            "rotation" : [
                0.16907575726509094,
                0.7558803558349609,
                -0.27217137813568115,
                0.570947527885437
            ],
            "translation" : [
                4.076245307922363,
                5.903861999511719,
                -1.0054539442062378
            ]
        },
        {
            "name" : "Camera",
            "rotation" : [
                0.483536034822464,
                0.33687159419059753,
                -0.20870360732078552,
                0.7804827094078064
            ],
            "translation" : [
                7.358891487121582,
                4.958309173583984,
                6.925790786743164
            ]
        },
        {
            "mesh" : 0,
            "name" : "model",
            "rotation" : [
                -0.2752353847026825,
                0.23047475516796112,
                0.9204270243644714,
                0.15472865104675293
            ],
            "translation" : [
                -0.2212446928024292,
                0.22217583656311035,
                0.04824388027191162
            ]
        }
    ],
    "materials" : [
        {
            "doubleSided" : true,
            "name" : "material0000",
            "pbrMetallicRoughness" : {
                "baseColorTexture" : {
                    "index" : 0,
                    "texCoord" : 0
                },
                "metallicFactor" : 0,
                "roughnessFactor" : 0.9666666388511658
            }
        },
        {
            "doubleSided" : true,
            "name" : "material0001",
            "pbrMetallicRoughness" : {
                "baseColorTexture" : {
                    "index" : 1,
                    "texCoord" : 0
                },
                "metallicFactor" : 0,
                "roughnessFactor" : 0.9666666388511658
            }
        },
        {
            "doubleSided" : true,
            "name" : "material0002",
            "pbrMetallicRoughness" : {
                "baseColorTexture" : {
                    "index" : 2,
                    "texCoord" : 0
                },
                "metallicFactor" : 0,
                "roughnessFactor" : 0.9666666388511658
            }
        }
    ],
    "meshes" : [
        {
            "name" : "model",
            "primitives" : [
                {
                    "attributes" : {
                        "POSITION" : 0,
                        "NORMAL" : 1,
                        "TEXCOORD_0" : 2
                    },
                    "indices" : 3,
                    "material" : 0
                },
                {
                    "attributes" : {
                        "POSITION" : 4,
                        "NORMAL" : 5,
                        "TEXCOORD_0" : 6
                    },
                    "indices" : 7,
                    "material" : 1
                },
                {
                    "attributes" : {
                        "POSITION" : 8,
                        "NORMAL" : 9,
                        "TEXCOORD_0" : 10
                    },
                    "indices" : 11,
                    "material" : 2
                }
            ]
        }
    ],
    "textures" : [
        {
            "sampler" : 0,
            "source" : 0
        },
        {
            "sampler" : 0,
            "source" : 1
        },
        {
            "sampler" : 0,
            "source" : 2
        }
    ],
    "images" : [
        {
            "bufferView" : 4,
            "mimeType" : "image/jpeg",
            "name" : "texture0"
        },
        {
            "bufferView" : 9,
            "mimeType" : "image/jpeg",
            "name" : "texture1"
        },
        {
            "bufferView" : 14,
            "mimeType" : "image/jpeg",
            "name" : "texture2"
        }
    ],
    "accessors" : [
        {
            "bufferView" : 0,
            "componentType" : 5126,
            "count" : 17947,
            "max" : [
                1.031205415725708,
                0.23241662979125977,
                1.1266169548034668
            ],
            "min" : [
                -0.8164725303649902,
                -0.8600285053253174,
                -0.7239190340042114
            ],
            "type" : "VEC3"
        },
        {
            "bufferView" : 1,
            "componentType" : 5126,
            "count" : 17947,
            "type" : "VEC3"
        },
        {
            "bufferView" : 2,
            "componentType" : 5126,
            "count" : 17947,
            "type" : "VEC2"
        },
        {
            "bufferView" : 3,
            "componentType" : 5123,
            "count" : 90942,
            "type" : "SCALAR"
        },
        {
            "bufferView" : 5,
            "componentType" : 5126,
            "count" : 342,
            "max" : [
                0.9999914765357971,
                0.17032623291015625,
                1.0630849599838257
            ],
            "min" : [
                -0.5523145794868469,
                -0.8637385368347168,
                -0.5649570226669312
            ],
            "type" : "VEC3"
        },
        {
            "bufferView" : 6,
            "componentType" : 5126,
            "count" : 342,
            "type" : "VEC3"
        },
        {
            "bufferView" : 7,
            "componentType" : 5126,
            "count" : 342,
            "type" : "VEC2"
        },
        {
            "bufferView" : 8,
            "componentType" : 5123,
            "count" : 762,
            "type" : "SCALAR"
        },
        {
            "bufferView" : 10,
            "componentType" : 5126,
            "count" : 167,
            "max" : [
                1.0003254413604736,
                0.14772939682006836,
                1.0161418914794922
            ],
            "min" : [
                -0.675229549407959,
                -0.8582155704498291,
                -0.5620861053466797
            ],
            "type" : "VEC3"
        },
        {
            "bufferView" : 11,
            "componentType" : 5126,
            "count" : 167,
            "type" : "VEC3"
        },
        {
            "bufferView" : 12,
            "componentType" : 5126,
            "count" : 167,
            "type" : "VEC2"
        },
        {
            "bufferView" : 13,
            "componentType" : 5123,
            "count" : 243,
            "type" : "SCALAR"
        }
    ],
    "bufferViews" : [
        {
            "buffer" : 0,
            "byteLength" : 215364,
            "byteOffset" : 0
        },
        {
            "buffer" : 0,
            "byteLength" : 215364,
            "byteOffset" : 215364
        },
        {
            "buffer" : 0,
            "byteLength" : 143576,
            "byteOffset" : 430728
        },
        {
            "buffer" : 0,
            "byteLength" : 181884,
            "byteOffset" : 574304
        },
        {
            "buffer" : 0,
            "byteLength" : 1279931,
            "byteOffset" : 756188
        },
        {
            "buffer" : 0,
            "byteLength" : 4104,
            "byteOffset" : 2036120
        },
        {
            "buffer" : 0,
            "byteLength" : 4104,
            "byteOffset" : 2040224
        },
        {
            "buffer" : 0,
            "byteLength" : 2736,
            "byteOffset" : 2044328
        },
        {
            "buffer" : 0,
            "byteLength" : 1524,
            "byteOffset" : 2047064
        },
        {
            "buffer" : 0,
            "byteLength" : 246234,
            "byteOffset" : 2048588
        },
        {
            "buffer" : 0,
            "byteLength" : 2004,
            "byteOffset" : 2294824
        },
        {
            "buffer" : 0,
            "byteLength" : 2004,
            "byteOffset" : 2296828
        },
        {
            "buffer" : 0,
            "byteLength" : 1336,
            "byteOffset" : 2298832
        },
        {
            "buffer" : 0,
            "byteLength" : 486,
            "byteOffset" : 2300168
        },
        {
            "buffer" : 0,
            "byteLength" : 69420,
            "byteOffset" : 2300656
        }
    ],
    "samplers" : [
        {
            "magFilter" : 9729,
            "minFilter" : 9986
        }
    ],
    "buffers" : [
        {
            "byteLength" : 2370076,
            "uri" : "data:application/octet-stream;base64,"
        }
    ]
}
