{
    "asset" : {
        "generator" : "Khronos glTF Blender I/O v1.4.40",
        "version" : "2.0"
    },
    "scene" : 0,
    "scenes" : [
        {
            "name" : "Scene",
            "nodes" : [
                0
            ]
        }
    ],
    "nodes" : [
        {
            "mesh" : 0,
            "name" : "model",
            "rotation" : [
                0.49143821001052856,
                -0.47142091393470764,
                -0.652025043964386,
                -0.3333379328250885
            ],
            "translation" : [
                0.4312881827354431,
                0.12719392776489258,
                0.013946711085736752
            ]
        }
    ],
    "materials" : [
        {
            "doubleSided" : true,
            "name" : "material0000",
            "pbrMetallicRoughness" : {
                "baseColorTexture" : {
                    "index" : 0,
                    "texCoord" : 0
                },
                "metallicFactor" : 0,
                "roughnessFactor" : 0.9666666388511658
            }
        },
        {
            "doubleSided" : true,
            "name" : "material0001",
            "pbrMetallicRoughness" : {
                "baseColorTexture" : {
                    "index" : 1,
                    "texCoord" : 0
                },
                "metallicFactor" : 0,
                "roughnessFactor" : 0.9666666388511658
            }
        }
    ],
    "meshes" : [
        {
            "name" : "model",
            "primitives" : [
                {
                    "attributes" : {
                        "POSITION" : 0,
                        "NORMAL" : 1,
                        "TEXCOORD_0" : 2
                    },
                    "indices" : 3,
                    "material" : 0
                },
                {
                    "attributes" : {
                        "POSITION" : 4,
                        "NORMAL" : 5,
                        "TEXCOORD_0" : 6
                    },
                    "indices" : 7,
                    "material" : 1
                }
            ]
        }
    ],
    "textures" : [
        {
            "sampler" : 0,
            "source" : 0
        },
        {
            "sampler" : 0,
            "source" : 1
        }
    ],
    "images" : [
        {
            "bufferView" : 4,
            "mimeType" : "image/jpeg",
            "name" : "texture0"
        },
        {
            "bufferView" : 9,
            "mimeType" : "image/jpeg",
            "name" : "texture1"
        }
    ],
    "accessors" : [
        {
            "bufferView" : 0,
            "componentType" : 5126,
            "count" : 37753,
            "max" : [
                1.294344425201416,
                1.1631836891174316,
                1.326723575592041
            ],
            "min" : [
                -1.0707297325134277,
                -0.6326413154602051,
                -0.27565640211105347
            ],
            "type" : "VEC3"
        },
        {
            "bufferView" : 1,
            "componentType" : 5126,
            "count" : 37753,
            "type" : "VEC3"
        },
        {
            "bufferView" : 2,
            "componentType" : 5126,
            "count" : 37753,
            "type" : "VEC2"
        },
        {
            "bufferView" : 3,
            "componentType" : 5123,
            "count" : 195192,
            "type" : "SCALAR"
        },
        {
            "bufferView" : 5,
            "componentType" : 5126,
            "count" : 369,
            "max" : [
                1.229654312133789,
                1.0812046527862549,
                1.3242075443267822
            ],
            "min" : [
                -0.9873915910720825,
                -0.5448262691497803,
                -0.22627754509449005
            ],
            "type" : "VEC3"
        },
        {
            "bufferView" : 6,
            "componentType" : 5126,
            "count" : 369,
            "type" : "VEC3"
        },
        {
            "bufferView" : 7,
            "componentType" : 5126,
            "count" : 369,
            "type" : "VEC2"
        },
        {
            "bufferView" : 8,
            "componentType" : 5123,
            "count" : 609,
            "type" : "SCALAR"
        }
    ],
    "bufferViews" : [
        {
            "buffer" : 0,
            "byteLength" : 453036,
            "byteOffset" : 0
        },
        {
            "buffer" : 0,
            "byteLength" : 453036,
            "byteOffset" : 453036
        },
        {
            "buffer" : 0,
            "byteLength" : 302024,
            "byteOffset" : 906072
        },
        {
            "buffer" : 0,
            "byteLength" : 390384,
            "byteOffset" : 1208096
        },
        {
            "buffer" : 0,
            "byteLength" : 1296968,
            "byteOffset" : 1598480
        },
        {
            "buffer" : 0,
            "byteLength" : 4428,
            "byteOffset" : 2895448
        },
        {
            "buffer" : 0,
            "byteLength" : 4428,
            "byteOffset" : 2899876
        },
        {
            "buffer" : 0,
            "byteLength" : 2952,
            "byteOffset" : 2904304
        },
        {
            "buffer" : 0,
            "byteLength" : 1218,
            "byteOffset" : 2907256
        },
        {
            "buffer" : 0,
            "byteLength" : 149786,
            "byteOffset" : 2908476
        }
    ],
    "samplers" : [
        {
            "magFilter" : 9729,
            "minFilter" : 9986
        }
    ],
    "buffers" : [
        {
            "byteLength" : 3058264,
            "uri" : "data:application/octet-stream;base64,"
        }
    ]
}
